<svg width="640" height="640" xmlns="http://www.w3.org/2000/svg" stroke="null" style="vector-effect: non-scaling-stroke;" version="1.0" preserveAspectRatio="xMidYMid meet">
 <g stroke="null">
  <title stroke="null">Layer 1</title>
  <path stroke="null" d="m295.0706,45.59358c0,0.41404 -4.77456,10.76499 -10.85126,22.56508c-5.85968,12.00711 -14.75772,30.84585 -19.96632,41.61084c-4.99158,10.97201 -10.20019,20.28787 -11.50234,20.90893c-1.51918,0.41404 -29.73246,-13.24922 -62.7203,-30.63883c-45.35828,-23.60018 -60.76707,-30.84585 -62.7203,-28.98268c-2.6043,2.48423 -1.95323,6.41759 15.62582,87.15505c4.99158,22.15105 8.89804,41.81786 8.89804,43.68103c0,2.48423 -12.37044,4.55442 -75.30776,11.38605c-70.75023,7.45269 -75.52479,8.28076 -75.52479,12.21413c0,2.48423 18.66417,20.70191 53.17119,51.34074c29.29841,26.08441 53.17119,48.44247 53.17119,49.89161c0,1.24211 -21.05145,21.73701 -46.66043,45.75123c-29.51543,27.53354 -46.66043,44.92315 -46.66043,47.6144c0,4.3474 -5.85968,3.31231 108.94668,18.83874c24.9579,3.31231 26.47708,3.72634 25.39195,7.86673c-4.34051,16.76855 -26.04303,133.32031 -25.39195,135.18349c1.95323,4.76144 7.16183,2.89827 39.28157,-14.69836c79.86529,-43.267 94.40599,-50.9267 95.05706,-50.30565c0.43405,0.41404 11.28531,22.97912 24.30683,50.30565c26.47708,55.27411 34.07296,70.3865 37.11132,72.04265c3.68943,2.27721 3.25538,3.31231 48.39663,-90.88139c7.16183,-14.90538 13.67259,-27.74056 14.75772,-28.77566c1.95323,-1.86317 24.9579,9.93692 93.32086,46.78632c18.44715,9.93692 35.37512,18.21768 37.54537,18.21768c4.99158,0 4.77456,-4.76144 -1.7362,-36.8494c-9.33209,-45.75123 -20.40037,-104.75168 -19.96632,-105.37273c0.43405,-0.20702 30.38354,-4.3474 66.84378,-9.10884c37.11132,-4.76144 67.27783,-9.52288 68.79701,-10.97201c2.82133,-2.48423 -17.57905,-22.97912 -78.12909,-78.25323c-9.33209,-8.48778 -16.92797,-16.35451 -16.92797,-17.59663c0,-1.24211 4.34051,-6.00355 9.54911,-10.35096c31.46866,-26.29143 97.87839,-86.94803 98.52947,-90.05332c0.43405,-2.27721 -1.08513,-3.93336 -4.34051,-4.55442c-5.64266,-1.24211 -84.2058,-10.14394 -120.01497,-13.66326c-13.02152,-1.24211 -24.9579,-2.69125 -26.26006,-3.10529c-1.7362,-0.41404 2.17025,-22.15105 11.50234,-66.24612c9.98316,-46.16526 13.45557,-66.24612 11.71936,-67.90227c-1.51918,-1.44913 -5.64266,-0.41404 -13.67259,3.72634c-13.88962,7.03865 -54.69036,28.1546 -88.11225,45.75123c-21.26847,11.17903 -24.52385,12.42115 -26.26006,9.52288c-1.95323,-3.72634 -48.61366,-102.06043 -56.20954,-119.03599c-2.82133,-5.79654 -5.85968,-9.7299 -8.02993,-9.7299l-24.9579,44.71613zm84.42282,98.33408c14.32367,30.22479 26.26006,55.68814 26.26006,56.51622c0,1.24211 -73.78859,100.61129 -78.56314,105.78677c-0.8681,1.0351 -1.7362,-60.44958 -1.7362,-136.63262l0,-138.70281l13.88962,28.98268c7.59588,15.94047 25.60898,53.82497 40.14967,84.04976zm-66.62675,39.54065c0.43405,67.90227 0,122.96936 -0.65108,122.14128c-0.8681,-0.82808 -18.66417,-24.63528 -39.93265,-52.99689l-38.41347,-51.34074l13.67259,-29.39672c7.37886,-15.94047 18.44715,-39.54065 24.74088,-51.9618c6.07671,-12.62817 17.36202,-36.22835 25.17493,-52.78988l13.88962,-30.01777l0.43405,11.38605c0.43405,6.21057 0.8681,67.0742 1.08513,134.97647zm-118.71281,-69.35141c13.23854,6.83163 30.60056,15.94047 38.6305,20.28787c10.63424,5.3825 14.54069,8.48778 13.67259,10.76499c-5.20861,12.83519 -19.96632,44.09507 -20.83442,44.09507c-1.08513,0 -67.9289,-87.56909 -72.48643,-94.81476c-1.08513,-1.65615 1.95323,-0.82808 7.59588,2.27721c5.20861,2.69125 20.40037,10.55798 33.42189,17.38961zm276.05612,1.0351c-31.90271,42.64594 -38.84752,51.34074 -40.58372,50.30565c-10.85126,7.03865 -10.41721,7.45269 -11.71936,10.55798c14.10664,-13.45624 13.23854,-9.52288 3.68943,3.10529c-4.99158,6.83163 -8.46398,9.7299 -8.89804,7.86673c-0.65108,-1.65615 -5.42563,-12.21413 -10.63424,-23.39316c-5.20861,-11.17903 -8.89804,-21.11595 -7.81291,-21.94403c0.8681,-0.82808 13.88962,-7.86673 28.86436,-15.73345c14.97474,-7.65971 34.50702,-18.01066 43.40505,-22.7721c8.89804,-4.76144 16.92797,-8.6948 17.79607,-8.90182c1.08513,-0.20702 -5.42563,9.31586 -14.10664,20.90893zm27.77923,-14.49134c-0.65108,1.44913 -5.42563,23.60018 -10.85126,49.27055c-5.42563,25.67037 -10.41721,48.02844 -11.06829,49.89161c-0.8681,2.89827 -3.4724,2.89827 -26.26006,0.41404c-13.88962,-1.44913 -25.60898,-2.89827 -25.82601,-3.31231c-0.21703,-0.20702 9.76614,-13.87028 22.13658,-30.43181c12.37044,-16.56153 29.08138,-38.71258 36.89429,-49.27055c14.10664,-18.63172 16.92797,-21.73701 14.97474,-16.56153zm-340.07857,19.66682c8.46398,11.17903 24.74088,32.91604 36.02619,48.23546l20.40037,27.94758l-7.37886,1.44913c-3.90645,0.82808 -15.19177,1.86317 -24.9579,2.07019l-17.79607,0.62106l-8.24696,-38.29854c-4.77456,-21.11595 -9.76614,-43.68103 -11.28531,-50.30565c-1.7362,-6.41759 -2.82133,-11.80009 -2.6043,-11.80009c0.43405,0 7.37886,9.10884 15.84284,20.08085zm102.00187,134.76945c19.53227,25.87739 37.11132,49.68459 39.4986,53.20391c4.12348,6.21057 3.25538,6.00355 -89.63143,-23.39316c-51.65201,-16.14749 -113.07016,-35.40027 -136.72591,-42.64594c-41.2348,-12.62817 -42.75397,-13.24922 -33.63891,-14.49134c4.99158,-0.62106 44.92423,-4.96846 88.5463,-9.52288c43.62208,-4.55442 80.73339,-8.6948 82.4696,-9.10884c12.80449,-2.89827 12.58746,-3.10529 49.48176,45.95824zm247.19176,-37.8845c47.52853,5.17548 89.63143,9.93692 93.53788,10.76499c6.29373,1.0351 0.21703,3.31231 -42.31992,16.56153c-27.12816,8.48778 -88.5463,27.94758 -136.29186,43.05998c-47.52853,15.31941 -86.8101,27.53354 -87.02713,27.32652c-1.51918,-1.24211 80.51637,-107.02889 82.90365,-107.02889c1.51918,0 41.66885,4.14038 89.19738,9.31586zm84.85687,39.95469c-17.79607,16.14749 -102.65295,91.50245 -116.54256,103.50956c-3.03835,2.48423 -6.29373,4.55442 -7.37886,4.55442c-1.51918,0 -116.10851,-34.77921 -127.39382,-38.71258c-1.7362,-0.62106 47.96258,-17.18259 110.68288,-36.8494c62.7203,-19.87384 123.70439,-39.12661 135.64078,-43.05998c11.93639,-3.93336 22.57063,-7.24567 23.43873,-7.45269c0.8681,0 -7.37886,8.07375 -18.44715,18.01066zm-425.58652,26.49845c72.05238,22.56508 129.99813,41.61084 129.13003,42.43892c-0.8681,0.62106 -29.29841,9.7299 -63.15435,20.28787l-61.63517,19.25278l-8.46398,-8.48778c-4.55753,-4.55442 -7.16183,-7.45269 -5.64266,-6.41759c1.51918,1.24211 3.68943,2.07019 4.99158,2.07019c2.82133,-0.20702 -5.42563,-4.76144 -9.33209,-5.3825c-1.7362,-0.41404 -9.98316,-6.83163 -18.66417,-14.69836c-22.13658,-20.08085 -69.44808,-61.89872 -85.942,-76.18304c-18.66417,-15.94047 -19.09822,-16.35451 -15.19177,-15.1124c1.7362,0.62106 62.06922,19.4598 133.90458,42.2319zm-32.33676,94.40072c-67.9289,21.11595 -93.53788,28.77566 -93.97193,28.1546c-0.21703,-0.41404 17.145,-16.56153 38.6305,-36.02133l39.28157,-35.60729l20.18335,18.01066l20.40037,17.80364l-24.52385,7.65971zm440.34424,4.76144c13.45557,12.42115 24.30683,22.7721 23.87278,22.97912c-0.21703,0.41404 -25.39195,-7.24567 -55.77549,-16.76855c-30.38354,-9.7299 -56.86062,-17.59663 -58.59682,-17.59663c-1.7362,0 6.07671,-8.28076 17.36202,-18.4247l20.6174,-18.4247l14.10664,12.83519c7.81291,7.03865 25.17493,22.97912 38.41347,35.40027zm-278.87745,-33.74412c-11.71936,14.49134 -42.1029,54.65305 -131.5173,173.275c-13.02152,17.18259 -24.0898,31.05287 -24.30683,30.63883c-1.7362,-1.65615 33.42189,-173.68904 35.80917,-175.96625c1.51918,-1.44913 125.00655,-40.57575 128.913,-40.78277c0.8681,0 -3.03835,5.79654 -8.89804,12.83519zm106.99345,7.45269l62.93732,20.08085l5.85968,28.98268c3.25538,15.94047 11.71936,56.72324 18.66417,90.67438c7.59588,36.43537 11.71936,60.6566 9.98316,59.00045c-1.51918,-1.44913 -16.27689,-20.90893 -32.77081,-43.05998c-31.90271,-42.64594 -61.20112,-81.1515 -98.52947,-130.00801c-34.94107,-45.95824 -34.94107,-45.95824 -31.90271,-45.75123c1.51918,0.20702 31.03461,9.10884 65.75865,20.08085zm-90.06548,53.61795l-1.08513,65.62506l-46.66043,24.63528c-25.60898,13.45624 -61.8522,32.70902 -80.51637,42.64594l-34.07296,18.21768l7.81291,-10.97201c4.34051,-6.00355 8.24696,-10.55798 8.68101,-10.14394c0.65108,0.41404 -0.21703,2.69125 -1.95323,4.55442c-2.82133,3.31231 -2.6043,3.51933 0.8681,0.82808c2.17025,-1.65615 3.4724,-4.14038 2.82133,-5.79654c-0.65108,-1.65615 7.59588,-14.49134 18.8812,-29.1897c18.66417,-24.01422 60.55005,-79.49534 107.4275,-141.8081c9.98316,-13.24922 18.44715,-24.22124 18.44715,-24.22124c0.21703,0 0,29.60373 -0.65108,65.62506zm85.72498,28.56864c36.67727,48.85651 73.13751,97.29899 80.95042,107.44292c7.59588,10.14394 13.02152,18.01066 11.93639,17.59663c-1.08513,-0.41404 -18.44715,-9.7299 -38.6305,-20.70191c-20.40037,-10.97201 -56.86062,-30.63883 -81.38447,-43.68103l-44.49018,-23.8072l-0.65108,-66.0391c-0.43405,-55.89516 0,-65.41804 2.38728,-62.93381c1.7362,1.65615 33.20486,43.05998 69.88213,92.12351zm194.2376,-20.28787c-15.19177,2.48423 -103.087,12.62817 -103.73807,12.00711c-0.65108,-0.62106 -2.82133,-10.14394 -4.99158,-21.11595c-2.17025,-11.17903 -4.55753,-22.15105 -5.20861,-24.63528c-0.8681,-3.93336 4.77456,-2.48423 58.16277,14.49134c32.33676,10.35096 57.51169,19.04576 55.77549,19.25278zm-431.88026,-35.19325c-0.21703,1.0351 -2.38728,11.80009 -4.99158,24.42826l-4.99158,22.7721l-6.29373,-0.82808c-73.78859,-8.6948 -99.18054,-12.21413 -96.57624,-13.24922c6.07671,-2.07019 109.59775,-34.15815 111.33396,-34.36517c0.8681,-0.20702 1.51918,0.41404 1.51918,1.24211zm154.08793,165.6153l-0.21703,61.6917l-7.59588,-15.52643c-18.66417,-37.8845 -37.97942,-80.94448 -37.32834,-82.80765c0.65108,-2.07019 39.93265,-24.22124 43.62208,-24.63528c0.8681,-0.20702 1.51918,27.53354 1.51918,61.27766zm55.34144,-36.64238c0.65108,1.0351 -9.11506,23.18614 -21.70253,49.06353l-22.78765,47.20036l0,-60.6566l0,-60.86362l8.24696,4.55442l36.24322,20.70191z" id="svg_2"/>
  <path stroke="null" id="svg_5"/>
  <path stroke="null" id="svg_12"/>
  <path stroke="null" id="svg_39" d="m379.99973,106.77808c-1.1297,0.24612 -1.24,0.31821 -1.50628,0.49224c-0.26625,0.17403 -0.23244,0.26486 -0.37656,0.49225c-0.2038,0.32158 -0.48689,0.31822 -0.75314,0.49225c-0.26628,0.17403 -0.1103,0.31821 -0.37656,0.49224c-0.26628,0.17404 -0.1103,0.31821 -0.37658,0.49225c-0.26625,0.17403 -0.37656,0.24612 -0.75314,0.49225c-0.37656,0.24612 -0.75314,0.24612 -0.75314,0.49224c0,0.24612 -0.11028,0.31821 -0.37656,0.49225c-0.26628,0.17404 -0.75314,0.24612 -1.12972,0.24612c-0.37656,0 -0.75311,0 -0.75311,-0.24612l-0.37658,-0.24612" fill="none"/>
  <path stroke="null" style="vector-effect: non-scaling-stroke;" fill="none" opacity="NaN" d="m369.95789,106.35967" id="svg_41"/>
 </g>

</svg>